#!OML:ASF H:\Not Pregnant\Project 1\Capture day 1\Session 1\non-pregnant.ASF
:FULLY-SPECIFIED
:DEGREES
894
root 0.143005 15.8104 27.2809 26.6929 -57.9545 -20.1579
lowerback -5.663 1.96403 12.6197
upperback -7.86146 2.17107 1.56939
thorax -4.78016 0.37094 -5.33857
lowerneck 28.7642 -9.6584 -30.0639
upperneck -13.8149 -21.0487 44.207
head 0.489514 -14.2948 24.4814
rclavicle 3.75703e-014 -6.55989e-015
rhumerus -41.163 -18.3714 -67.2531
rradius 17.909
rwrist 40.6282
rhand -17.8953 -11.5139
rfingers 7.12502
rthumb 8.37135 -41.328
lclavicle 3.75703e-014 -6.55989e-015
lhumerus -48.0187 -1.00552 85.0711
lradius 28.6392
lwrist 29.2607
lhand -20.7704 -14.2032
lfingers 7.12502
lthumb 5.59598 15.7029
rfemur -9.90986 20.1903 28.1018
rtibia 20.1264
rfoot -10.3481 33.8816
rtoes 13.6577
lfemur -28.426 -14.6755 1.32645
ltibia 35.663
lfoot -19.9769 -7.90302
ltoes -32.0624
895
root 0.130235 15.8204 27.3497 26.9492 -58.3151 -20.221
lowerback -5.8401 1.89821 12.5243
upperback -7.93339 2.05866 1.62099
thorax -4.78104 0.315635 -5.22986
lowerneck 28.6016 -9.61695 -30.1133
upperneck -13.579 -21.0286 44.1321
head 0.56345 -14.2611 24.403
rclavicle 3.84648e-014 9.74045e-015
rhumerus -41.6265 -18.4382 -65.9441
rradius 18.6298
rwrist 39.1551
rhand -16.726 -11.0749
rfingers 7.12502
rthumb 9.49968 -40.8408
lclavicle 3.84648e-014 9.74045e-015
lhumerus -48.3006 -1.47238 85.3056
lradius 28.5768
lwrist 28.63
lhand -19.9785 -13.7996
lfingers 7.12502
lthumb 6.36061 16.0849
rfemur -9.77316 20.1307 27.7612
rtibia 19.7486
rfoot -10.0089 34.2215
rtoes 13.9756
lfemur -28.1773 -14.3089 0.934672
ltibia 35.4739
lfoot -20.1057 -7.82666
ltoes -31.9445
896
root 0.117682 15.8301 27.4175 27.2118 -58.6523 -20.2887
lowerback -6.01584 1.82262 12.4266
upperback -8.00432 1.93383 1.67884
thorax -4.78355 0.254409 -5.11398
lowerneck 28.424 -9.58132 -30.148
upperneck -13.3401 -21.0068 44.0544
head 0.637336 -14.2251 24.3165
rclavicle -2.17918e-014 8.54774e-015
rhumerus -42.0323 -18.5213 -64.6391
rradius 19.3123
rwrist 37.8977
rhand -15.322 -10.464
rfingers 7.12502
rthumb 10.8542 -40.1635
lclavicle -2.17918e-014 8.54774e-015
lhumerus -48.5876 -1.92895 85.5501
lradius 28.5594
lwrist 28.1327
lhand -19.1329 -13.4596
lfingers 7.12502
lthumb 7.17691 16.3987
rfemur -9.63297 20.0402 27.4307
rtibia 19.3528
rfoot -9.62892 34.5702
rtoes 14.3726
lfemur -27.9653 -13.951 0.571331
ltibia 35.2993
lfoot -20.2069 -7.83612
ltoes -31.8302
897
root 0.105664 15.8394 27.4847 27.49 -58.9448 -20.3853
lowerback -6.18242 1.73484 12.3591
upperback -8.07235 1.79362 1.74587
thorax -4.7906 0.184059 -5.00603
lowerneck 28.2397 -9.54545 -30.1822
upperneck -13.0983 -20.9836 43.979
head 0.713 -14.1884 24.2319
rclavicle 5.0864e-014 3.04141e-014
rhumerus -42.3847 -18.6226 -63.3402
rradius 19.9429
rwrist 36.8473
rhand -13.7333 -9.73049
rfingers 7.12502
rthumb 12.3862 -39.3435
lclavicle 5.0864e-014 3.04141e-014
lhumerus -48.8738 -2.3643 85.7963
lradius 28.5808
lwrist 27.7986
lhand -18.2464 -13.1899
lfingers 7.12502
lthumb 8.03252 16.6375
rfemur -9.47732 19.9139 27.1374
rtibia 18.94
rfoot -9.21785 34.9197
rtoes 14.83
lfemur -27.7883 -13.6069 0.251617
ltibia 35.1495
lfoot -20.288 -7.92591
ltoes -31.6926
898
root 0.0938689 15.8487 27.5513 27.7385 -59.2282 -20.4601
lowerback -6.33936 1.64477 12.2795
upperback -8.13405 1.65218 1.80948
thorax -4.79566 0.114245 -4.89564
lowerneck 28.0572 -9.5176 -30.198
upperneck -12.8675 -20.9616 43.9038
head 0.783315 -14.1529 24.1432
rclavicle -2.6339e-015 -1.70955e-014
rhumerus -42.6885 -18.714 -62.0802
rradius 20.5232
rwrist 35.9382
rhand -12.0324 -8.93539
rfingers 7.12502
rthumb 14.0258 -38.4422
lclavicle -2.6339e-015 -1.70955e-014
lhumerus -49.1617 -2.8197 86.0769
lradius 28.6438
lwrist 27.6246
lhand -17.3848 -12.9898
lfingers 7.12502
lthumb 8.86399 16.8041
rfemur -9.30329 19.7599 26.8415
rtibia 18.5176
rfoot -8.80636 35.2797
rtoes 15.301
lfemur -27.6249 -13.2576 -0.0790908
ltibia 35.0205
lfoot -20.3572 -8.06093
ltoes -31.5681
